<svg version="1.1" id="Layer_1" xmlns="http://www.w3.org/2000/svg" xmlns:xlink="http://www.w3.org/1999/xlink" x="0px" y="0px"
	 width="100%" viewBox="0 0 1024 1024" enable-background="0 0 1024 1024" xml:space="preserve">
<path fill="#21B0A5" opacity="1.000000" stroke="none" 
	d="
M389.468842,483.424133 
	C389.468842,508.532593 389.468842,533.641052 389.468842,559.020630 
	C382.255554,559.020630 375.321045,559.020630 368.162323,559.020630 
	C368.162323,521.405334 368.162323,483.976807 368.162323,445.946198 
	C377.335114,445.946198 386.283081,445.788513 395.211731,446.132507 
	C396.417908,446.178986 398.012726,448.566284 398.608063,450.173279 
	C407.513947,474.212250 416.279114,498.303314 425.089630,522.377686 
	C425.639526,523.880127 426.290527,525.345520 427.301575,527.827393 
	C432.459625,513.913574 437.250366,501.039246 442.004852,488.151550 
	C446.785828,475.191956 451.470917,462.196320 456.379333,449.285431 
	C456.899109,447.918304 458.607544,446.082520 459.814331,446.044495 
	C468.599854,445.767456 477.398132,445.895416 486.496643,445.895416 
	C486.496643,483.804565 486.496643,521.218811 486.496643,558.946167 
	C479.313416,558.946167 472.382874,558.946167 465.186432,558.946167 
	C465.186432,533.080627 465.186432,507.446777 465.186432,481.812927 
	C464.934845,481.736572 464.683228,481.660217 464.431641,481.583832 
	C463.888458,482.830566 463.294312,484.057831 462.809570,485.326874 
	C453.961426,508.492218 445.051392,531.634521 436.372772,554.863342 
	C435.126678,558.198608 433.567871,559.462952 429.966888,559.415588 
	C419.475647,559.277710 419.465240,559.437744 415.769958,549.610840 
	C407.452515,527.492065 399.144135,505.369843 390.525208,482.688538 
	C389.962097,481.860565 389.705841,481.593140 389.449615,481.325684 
	C389.456024,482.025177 389.462433,482.724640 389.468842,483.424133 
z"/>
<path fill="#21B0A5" opacity="1.000000" stroke="none" 
	d="
M324.346191,436.510437 
	C317.668945,432.591522 311.071716,429.634369 302.879364,430.010101 
	C302.879364,432.015411 302.878510,433.806061 302.879517,435.596680 
	C302.897247,466.592194 302.523743,497.594391 303.051514,528.581238 
	C303.509155,555.453674 272.454102,572.161499 250.494659,562.073669 
	C235.841507,555.342285 231.404785,540.287170 240.038391,526.700684 
	C250.220856,510.676666 274.470276,503.322998 290.114716,513.367737 
	C290.624023,513.694763 291.290161,513.777527 292.453979,514.163391 
	C292.453979,468.539398 292.453979,423.326752 292.453979,377.773560 
	C295.709076,377.773560 298.477661,377.773560 301.878815,377.773560 
	C304.020294,396.547424 317.939789,407.309570 331.290131,418.327087 
	C348.596954,432.609772 356.390137,450.434906 351.791504,472.689240 
	C350.490051,478.987457 347.256042,484.886322 343.890747,490.811859 
	C349.069855,468.360046 344.757202,449.758972 324.346191,436.510437 
z"/>
<path fill="#21B0A5" opacity="1.000000" stroke="none" 
	d="
M503.951447,500.000000 
	C503.967743,492.172607 503.981903,484.845184 504.016998,477.517883 
	C504.018433,477.216003 504.216003,476.915039 504.437164,476.287567 
	C511.048004,476.287567 517.766479,476.287567 525.042053,476.287567 
	C525.042053,484.400024 525.045837,492.344543 525.041077,500.289062 
	C525.035828,509.116882 524.979004,517.944946 525.024048,526.772461 
	C525.080383,537.828735 529.788147,543.585327 538.899902,543.880798 
	C548.191467,544.181946 555.775330,537.461182 556.143005,527.476685 
	C556.657593,513.503052 556.415222,499.501404 556.489807,485.511749 
	C556.505676,482.540344 556.492188,479.568817 556.492188,476.292114 
	C563.728027,476.292114 570.466248,476.292114 577.642578,476.292114 
	C577.642578,503.711884 577.642578,531.087036 577.642578,558.802490 
	C571.260254,558.802490 564.871765,558.802490 558.132568,558.802490 
	C557.979614,555.658203 557.830933,552.602600 557.682251,549.546997 
	C557.239197,549.205566 556.796204,548.864136 556.353210,548.522766 
	C555.735535,549.628357 555.308655,550.911499 554.470764,551.812195 
	C545.858765,561.069275 532.587463,564.305420 521.073181,559.912048 
	C508.957611,555.289246 504.687134,545.357178 504.177124,533.474426 
	C503.706116,522.499939 503.997498,511.492767 503.951447,500.000000 
z"/>
<path fill="#23B0A6" opacity="1.000000" stroke="none" 
	d="
M638.192993,542.278625 
	C642.482483,536.287231 641.557617,531.795471 635.214050,529.374817 
	C629.648682,527.251221 623.720520,526.096313 618.007568,524.335327 
	C613.887390,523.065308 609.764832,521.719360 605.806213,520.026306 
	C597.027588,516.271973 592.234802,509.664001 592.052979,499.917419 
	C591.866150,489.904449 596.264282,482.300354 605.073059,478.063538 
	C618.714844,471.502106 632.824341,471.541595 646.515137,478.069366 
	C655.091614,482.158630 658.709656,489.878326 659.752319,499.994110 
	C653.358521,499.994110 647.141479,500.094696 640.936584,499.866180 
	C640.165283,499.837769 639.279053,498.151733 638.750244,497.083313 
	C635.083923,489.676270 622.975525,486.811127 616.240845,491.813141 
	C611.583557,495.272247 611.749390,501.466888 616.944824,504.082275 
	C620.460632,505.852112 624.454956,506.675476 628.241699,507.902069 
	C635.190308,510.152985 642.307861,511.982452 649.063110,514.710388 
	C666.525818,521.762268 664.408142,544.268127 654.275818,553.014709 
	C640.633545,564.791199 611.777466,564.718872 598.462402,552.559448 
	C592.987549,547.559753 590.782227,541.147217 590.133240,533.232788 
	C596.318115,533.232788 602.244324,533.176025 608.166321,533.306946 
	C608.878540,533.322754 609.807068,534.214478 610.232544,534.937317 
	C616.714539,545.949829 626.686218,548.712585 638.192993,542.278625 
z"/>
<path fill="#23B0A6" opacity="1.000000" stroke="none" 
	d="
M777.885254,483.121277 
	C784.048950,489.000488 787.078430,495.966980 788.081909,504.803711 
	C781.465088,504.803711 775.209045,504.931488 768.969543,504.667603 
	C768.020874,504.627472 766.785889,502.918335 766.302185,501.729401 
	C763.726990,495.399872 759.276978,491.759277 752.347839,491.426575 
	C745.177551,491.082275 739.559570,494.063538 736.166199,500.237549 
	C730.077820,511.314941 730.040649,522.907471 735.035522,534.346497 
	C738.001404,541.138855 743.860596,544.149963 751.177795,543.893433 
	C758.358826,543.641846 763.606873,540.194031 765.919067,533.256958 
	C766.858887,530.437256 768.346008,529.841492 771.021729,529.932434 
	C776.478333,530.117859 781.945618,529.987976 787.404724,529.987976 
	C787.326172,544.455261 775.051453,557.656433 759.141479,560.841736 
	C732.666382,566.142090 710.695679,548.733765 709.989380,521.678833 
	C709.855896,516.564697 710.096497,511.294617 711.182617,506.318726 
	C717.928955,475.411743 752.788818,463.200531 777.885254,483.121277 
z"/>
<path fill="#23B0A6" opacity="1.000000" stroke="none" 
	d="
M330.281128,551.886353 
	C330.281372,538.121460 330.281372,524.838501 330.281372,511.088318 
	C323.788422,511.088318 317.860596,511.088318 311.622437,511.088318 
	C311.622437,504.211395 311.622437,497.804718 311.622437,490.880768 
	C316.232086,490.880768 320.701019,490.679413 325.143066,490.938873 
	C329.368561,491.185699 330.995483,489.905945 330.822662,485.333984 
	C330.452820,475.549042 330.709381,465.740448 330.709381,455.941528 
	C331.164917,455.777924 331.620453,455.614288 332.075989,455.450684 
	C333.732025,460.220459 336.338135,464.899933 336.802094,469.782959 
	C337.373810,475.800659 336.858246,482.146637 335.511658,488.054169 
	C334.321350,493.275909 334.943390,496.652283 339.926880,498.884155 
	C341.120392,499.418701 342.174835,500.263733 343.667664,501.201050 
	C346.563354,497.715942 349.393616,494.309570 352.554749,490.505005 
	C352.554749,513.447449 352.554749,535.977112 352.554749,558.932007 
	C345.283752,558.932007 337.931335,558.932007 330.280914,558.932007 
	C330.280914,556.654785 330.280914,554.511536 330.281128,551.886353 
z"/>
<path fill="#21B0A5" opacity="1.000000" stroke="none" 
	d="
M674.976562,484.061554 
	C674.973755,481.268097 674.973755,478.964661 674.973755,476.335815 
	C682.042358,476.335815 688.755310,476.335815 695.791260,476.335815 
	C695.791260,503.818176 695.791260,531.081787 695.791260,558.772339 
	C689.119446,558.772339 682.394470,558.772339 674.979431,558.772339 
	C674.979431,534.091125 674.979431,509.321350 674.976562,484.061554 
z"/>
<path fill="#23B0A6" opacity="1.000000" stroke="none" 
	d="
M279.339905,500.838623 
	C272.970093,500.779144 267.029999,500.779144 260.635162,500.779144 
	C260.635162,483.437866 260.635162,465.096893 260.635162,446.369080 
	C267.766785,446.369080 274.998260,446.369080 282.819824,446.369080 
	C282.819824,464.510376 282.819824,482.723297 282.819824,501.225281 
	C281.958862,501.132935 280.864258,501.015533 279.339905,500.838623 
z"/>
<path fill="#23B0A6" opacity="1.000000" stroke="none" 
	d="
M690.553162,443.253143 
	C697.339966,447.012817 699.644714,454.168610 696.331055,460.204620 
	C693.259033,465.800537 684.446411,467.688232 678.277710,464.071747 
	C673.007812,460.982178 671.399231,453.551086 674.771179,447.872742 
	C677.587158,443.130585 682.443604,441.633636 690.553162,443.253143 
z"/>
</svg>